<?xml version="1.0" encoding="UTF-8" standalone="no"?>
<!-- Created with Inkscape (http://www.inkscape.org/) -->

<svg
   xmlns:dc="http://purl.org/dc/elements/1.1/"
   xmlns:cc="http://creativecommons.org/ns#"
   xmlns:rdf="http://www.w3.org/1999/02/22-rdf-syntax-ns#"
   xmlns:svg="http://www.w3.org/2000/svg"
   xmlns="http://www.w3.org/2000/svg"
   xmlns:sodipodi="http://sodipodi.sourceforge.net/DTD/sodipodi-0.dtd"
   xmlns:inkscape="http://www.inkscape.org/namespaces/inkscape"
   width="500"
   height="310"
   viewBox="0 0 132.29166 82.020829"
   version="1.1"
   id="svg8"
   inkscape:version="0.92.5 (0.92.5+69)"
   sodipodi:docname="logo_cmr_red.svg">
  <defs
     id="defs2" />
  <sodipodi:namedview
     id="base"
     pagecolor="#ffffff"
     bordercolor="#666666"
     borderopacity="1.0"
     inkscape:pageopacity="0.0"
     inkscape:pageshadow="2"
     inkscape:zoom="1.979899"
     inkscape:cx="249.04933"
     inkscape:cy="141.64747"
     inkscape:document-units="mm"
     inkscape:current-layer="layer1"
     showgrid="false"
     units="px"
     inkscape:window-width="1920"
     inkscape:window-height="1145"
     inkscape:window-x="1920"
     inkscape:window-y="27"
     inkscape:window-maximized="1" />
  <metadata
     id="metadata5">
    <rdf:RDF>
      <cc:Work
         rdf:about="">
        <dc:format>image/svg+xml</dc:format>
        <dc:type
           rdf:resource="http://purl.org/dc/dcmitype/StillImage" />
        <dc:title></dc:title>
      </cc:Work>
    </rdf:RDF>
  </metadata>
  <g
     inkscape:label="Capa 1"
     inkscape:groupmode="layer"
     id="layer1"
     transform="translate(0,-214.97916)">
    <g
       id="g862"
       transform="matrix(0.99141549,0,0,0.99141549,1.8230342,31.095155)"
       style="fill:#ff0000;fill-opacity:0.94117647">
      <g
         transform="translate(0.2934486,-0.48096349)"
         id="text827"
         style="font-style:normal;font-variant:normal;font-weight:normal;font-stretch:normal;font-size:34.33385468px;line-height:1.25;font-family:aakar;-inkscape-font-specification:aakar;letter-spacing:0px;word-spacing:0px;fill:#ff0000;fill-opacity:0.94117647;stroke:none;stroke-width:0.85834628"
         aria-label="CMR">
        <path
           inkscape:connector-curvature="0"
           id="path829"
           style="font-style:normal;font-variant:normal;font-weight:normal;font-stretch:normal;font-family:'Helvetica Now Display';-inkscape-font-specification:'Helvetica Now Display';letter-spacing:1.984375px;word-spacing:0px;stroke-width:0.85834628;fill:#ff0000;fill-opacity:0.94117647"
           d="m 35.13861,240.0949 q -5.699419,0 -9.098471,-3.46771 -3.433386,-3.43339 -3.433386,-9.30448 0,-5.87109 3.364718,-9.33881 3.330384,-3.43338 9.167139,-3.43338 4.703739,0 8.034122,2.5407 3.261717,2.57504 3.948394,7.10711 h -6.935439 q -0.480674,-1.81969 -1.819694,-2.78104 -1.339021,-0.99568 -3.227383,-0.99568 -2.643706,0 -4.017061,1.78536 -1.373354,1.78536 -1.373354,5.11574 0,3.33038 1.373354,5.11574 1.373355,1.78537 4.017061,1.78537 2.060032,0 3.399052,-1.09869 1.373354,-1.13302 1.751027,-3.15871 h 6.866771 q -0.583676,4.80674 -3.845392,7.45044 -3.29605,2.67804 -8.171458,2.67804 z" />
        <path
           inkscape:connector-curvature="0"
           id="path831"
           style="font-style:normal;font-variant:normal;font-weight:normal;font-stretch:normal;font-family:'Helvetica Now Display';-inkscape-font-specification:'Helvetica Now Display';letter-spacing:1.984375px;word-spacing:0px;stroke-width:0.85834628;fill:#ff0000;fill-opacity:0.94117647"
           d="m 66.88561,224.37 2.334702,-9.27014 h 10.50616 v 24.4457 h -6.523433 v -6.93544 q 0,-6.72943 0.206003,-11.43317 -0.755344,3.02138 -1.442022,5.42475 l -3.536387,12.94386 H 62.868549 L 59.332162,226.6017 q -0.686677,-2.40337 -1.442022,-5.42475 0.206003,4.70374 0.206003,11.43317 v 6.93544 h -6.523432 v -24.4457 H 62.07887 l 2.334702,9.27014 q 0.892681,3.57072 1.236019,5.25308 0.343339,-1.68236 1.236019,-5.25308 z" />
        <path
           inkscape:connector-curvature="0"
           id="path833"
           style="font-style:normal;font-variant:normal;font-weight:normal;font-stretch:normal;font-family:'Helvetica Now Display';-inkscape-font-specification:'Helvetica Now Display';letter-spacing:1.984375px;word-spacing:0px;stroke-width:0.85834628;fill:#ff0000;fill-opacity:0.94117647"
           d="m 105.81053,233.81181 0.13733,3.26172 q 0.0687,1.51068 0.61801,2.47203 H 99.4931 q -0.412006,-0.78968 -0.480674,-2.47203 l -0.103001,-2.78105 q -0.06867,-1.85403 -0.858347,-2.50637 -0.755345,-0.68668 -2.472037,-0.68668 H 92.00832 v 8.44613 h -6.866771 v -24.4457 h 12.016849 q 4.669402,0 6.901102,2.0257 2.19737,2.06003 2.19737,5.21874 0,1.88836 -0.99568,3.39905 -0.96135,1.51069 -2.81538,2.33471 1.85403,0.68667 2.54071,1.99136 0.72101,1.30469 0.82401,3.74239 z M 92.00832,220.45594 v 5.63075 h 4.120062 q 3.055713,0 3.055713,-2.81537 0,-2.81538 -3.055713,-2.81538 z" />
      </g>
      <path
         id="path825"
         transform="matrix(0.26458333,0,0,0.26458333,0,164.70833)"
         d="M 245.21484,88.972656 A 242.07849,145.86147 0 0 0 3.1367188,234.83398 242.07849,145.86147 0 0 0 245.21484,380.69727 242.07849,145.86147 0 0 0 487.29297,234.83398 242.07849,145.86147 0 0 0 245.21484,88.972656 Z m 0,21.673824 A 222.45648,124.18865 0 0 1 467.67188,234.83398 222.45648,124.18865 0 0 1 245.21484,359.02344 222.45648,124.18865 0 0 1 22.757812,234.83398 222.45648,124.18865 0 0 1 245.21484,110.64648 Z"
         style="opacity:1;vector-effect:none;fill:#ff0000;fill-opacity:0.94117647;stroke:none;stroke-width:1.21112931;stroke-linecap:butt;stroke-linejoin:miter;stroke-miterlimit:4;stroke-dasharray:none;stroke-dashoffset:0;stroke-opacity:1"
         inkscape:connector-curvature="0" />
    </g>
  </g>
</svg>
